G04 PROTEUS RS274X GERBER FILE*
%FSLAX45Y45*%
%MOMM*%
G01*
%ADD10C,0.762000*%
%ADD11C,2.540000*%
%ADD12C,2.032000*%
%ADD13C,2.286000*%
%ADD14C,1.524000*%
%ADD15C,1.016000*%
%ADD16C,1.524000*%
%ADD17C,1.016000*%
%ADD18C,1.270000*%
%ADD19C,1.778000*%
%ADD70C,3.048000*%
%ADD71C,11.430000*%
%ADD20C,15.240000*%
%ADD21R,1.016000X0.889000*%
%ADD22R,1.524000X1.016000*%
%ADD23C,2.032000*%
%ADD24C,4.064000*%
%ADD25C,3.810000*%
%ADD26R,2.032000X2.032000*%
%ADD27C,2.540000*%
%ADD28C,0.203200*%
D10*
X+9500000Y+4340000D02*
X+9570000Y+4410000D01*
X+9840000Y+4410000D01*
X+10160000Y+4410000D01*
X+9500000Y+4152040D02*
X+9557000Y+4095040D01*
X+9840000Y+4095040D01*
X+10160000Y+4095040D01*
X+9840000Y+4095040D02*
X+9840000Y+3934960D01*
X+9840000Y+3620000D02*
X+9844960Y+3615040D01*
X+10160000Y+3615040D01*
X+9840000Y+3620000D02*
X+9434573Y+3620000D01*
X+9352314Y+3537741D01*
X+9352314Y+3242314D01*
X+9340000Y+3230000D01*
X+12167000Y+4340000D02*
X+12237000Y+4410000D01*
X+12507000Y+4410000D01*
X+12827000Y+4410000D01*
X+12167000Y+4152040D02*
X+12224000Y+4095040D01*
X+12507000Y+4095040D01*
X+12827000Y+4095040D01*
X+12507000Y+4095040D02*
X+12507000Y+3934960D01*
X+12507000Y+3620000D02*
X+12511960Y+3615040D01*
X+12827000Y+3615040D01*
X+12507000Y+3620000D02*
X+12101573Y+3620000D01*
X+12019314Y+3537741D01*
X+12019314Y+3242314D01*
X+12007000Y+3230000D01*
X+14834000Y+4340000D02*
X+14904000Y+4410000D01*
X+15174000Y+4410000D01*
X+15494000Y+4410000D01*
X+14834000Y+4152040D02*
X+14891000Y+4095040D01*
X+15174000Y+4095040D01*
X+15494000Y+4095040D01*
X+15174000Y+4095040D02*
X+15174000Y+3934960D01*
X+15174000Y+3620000D02*
X+15178960Y+3615040D01*
X+15494000Y+3615040D01*
X+15174000Y+3620000D02*
X+14768573Y+3620000D01*
X+14686314Y+3537741D01*
X+14686314Y+3242314D01*
X+14674000Y+3230000D01*
X+17501000Y+4340000D02*
X+17571000Y+4410000D01*
X+17841000Y+4410000D01*
X+18161000Y+4410000D01*
X+17501000Y+4152040D02*
X+17558000Y+4095040D01*
X+17841000Y+4095040D01*
X+18161000Y+4095040D01*
X+17841000Y+4095040D02*
X+17841000Y+3934960D01*
X+17841000Y+3620000D02*
X+17845960Y+3615040D01*
X+18161000Y+3615040D01*
X+17841000Y+3620000D02*
X+17435573Y+3620000D01*
X+17353314Y+3537741D01*
X+17353314Y+3242314D01*
X+17341000Y+3230000D01*
D11*
X+22005540Y+8325240D02*
X+22005540Y+7575620D01*
X+22005920Y+7575240D01*
X+19265540Y+8325240D02*
X+19265540Y+7575620D01*
X+19265920Y+7575240D01*
X+20635540Y+8325240D02*
X+20635540Y+7575620D01*
X+20635920Y+7575240D01*
D12*
X+16740290Y+3600000D02*
X+16740290Y+3605733D01*
X+16742334Y+3607777D01*
X+14090000Y+3600000D02*
X+14090000Y+3604005D01*
X+14089083Y+3604922D01*
D13*
X+7882480Y+2693112D02*
X+7885504Y+2696136D01*
X+19131219Y+2701219D02*
X+19130000Y+2700000D01*
X+19410000Y+1400000D02*
X+18930000Y+1400000D01*
X+18650000Y+1120000D01*
X+18650000Y+330000D01*
X+18630000Y+310000D01*
X+14550000Y+7410000D02*
X+16804601Y+7410000D01*
X+18293804Y+5920797D01*
X+21379204Y+5920797D01*
X+22688160Y+4611841D01*
X+22688160Y+888160D01*
X+22110000Y+310000D01*
X+18630000Y+310000D01*
X+15300000Y+1400000D02*
X+14730000Y+1400000D01*
X+14460000Y+1130000D01*
X+14460000Y+320000D01*
X+14470000Y+310000D01*
X+18630000Y+310000D02*
X+14470000Y+310000D01*
X+11190000Y+1400000D02*
X+10690000Y+1400000D01*
X+10400000Y+1110000D01*
X+10400000Y+352716D01*
X+10357284Y+310000D01*
X+14470000Y+310000D02*
X+10357284Y+310000D01*
X+7090000Y+1400000D02*
X+6590000Y+1400000D01*
X+6300000Y+1110000D01*
X+6300000Y+310000D01*
X+10357284Y+310000D02*
X+6300000Y+310000D01*
D14*
X+19806240Y+1003760D02*
X+19806240Y+814060D01*
X+19616666Y+624486D01*
X+19135514Y+624486D01*
X+18980000Y+780000D01*
X+18980000Y+980000D01*
X+18980000Y+990000D01*
X+18865000Y+3230000D02*
X+18455220Y+2820220D01*
X+18455220Y+1600000D01*
X+18455220Y+1554862D01*
D11*
X+14550000Y+7410000D02*
X+14650000Y+7510000D01*
X+14820000Y+7510000D01*
X+14868770Y+7461230D01*
X+14869091Y+7461230D01*
D13*
X+4403980Y+6671160D02*
X+4874560Y+6200580D01*
X+9334396Y+6200580D01*
X+9972463Y+6838647D01*
X+9972463Y+7857101D01*
X+10438743Y+8323381D01*
X+10883381Y+8323381D01*
X+10920000Y+8360000D01*
D11*
X+11020000Y+8360000D01*
X+11170000Y+8210000D01*
X+10920000Y+8360000D02*
X+11070000Y+8210000D01*
X+11170000Y+8210000D01*
D14*
X+1620000Y+3920000D02*
X+1940697Y+4240697D01*
X+1940697Y+4245241D01*
X+1940697Y+4936985D01*
X+1949122Y+4945410D01*
X+2763000Y+3920000D02*
X+3082222Y+4239222D01*
X+3082222Y+4249453D01*
X+3082222Y+4927632D01*
X+3100000Y+4945410D01*
X+1601640Y+5220000D02*
X+1601640Y+4957566D01*
X+1589484Y+4945410D01*
X+1949122Y+4945410D02*
X+1589484Y+4945410D01*
X+700000Y+4945410D01*
X+2681640Y+5220000D02*
X+2681640Y+4950923D01*
X+2687153Y+4945410D01*
X+3100000Y+4945410D02*
X+2687153Y+4945410D01*
X+1949122Y+4945410D01*
X+3841640Y+5220000D02*
X+3841640Y+4950402D01*
X+3836648Y+4945410D01*
X+3100000Y+4945410D01*
X+5011640Y+5220000D02*
X+5011640Y+4954435D01*
X+5020665Y+4945410D01*
X+5049000Y+3920000D02*
X+5382640Y+4253640D01*
X+5382640Y+4454590D01*
X+5382640Y+4859517D01*
X+5296747Y+4945410D01*
X+5020665Y+4945410D01*
X+700000Y+4945410D02*
X+500411Y+4945410D01*
X+150594Y+4595593D01*
X+150594Y+563561D01*
X+180709Y+533446D01*
D12*
X+180709Y+4623587D01*
X+477500Y+4922500D01*
D10*
X+2260000Y+5220000D02*
X+2260000Y+5498048D01*
X+2592440Y+5830488D01*
X+5713398Y+5830488D01*
X+6287599Y+5256287D01*
D15*
X+4590000Y+5220000D02*
X+4590000Y+5427618D01*
X+4662382Y+5500000D01*
X+5449418Y+5500000D01*
X+5865609Y+5083809D01*
X+5865609Y+4505926D01*
X+6120952Y+4250583D01*
X+9297317Y+4250583D01*
X+9301880Y+4246020D01*
D10*
X+6287599Y+5256287D02*
X+6414239Y+5129647D01*
X+16605989Y+5129647D01*
X+16605989Y+4792852D01*
X+17143112Y+4255729D01*
X+17293171Y+4255729D01*
X+17302880Y+4246020D01*
X+3420000Y+5220000D02*
X+3420000Y+5559770D01*
X+3521003Y+5660773D01*
X+5575209Y+5660773D01*
X+6403370Y+4832612D01*
X+11196522Y+4832612D01*
X+11783114Y+4246020D01*
X+11968880Y+4246020D01*
X+14635880Y+4246020D02*
X+14400000Y+4481900D01*
X+14400000Y+4700000D01*
X+1180000Y+5220000D02*
X+1180000Y+5431346D01*
X+1727759Y+5979105D01*
X+5916057Y+5979105D01*
X+6553308Y+5341854D01*
X+14374519Y+5341854D01*
X+14400000Y+5300000D01*
D14*
X+1180000Y+5220000D02*
X+723503Y+5220000D01*
X+723269Y+5219766D01*
X+2260000Y+5220000D02*
X+1934202Y+5220000D01*
X+1933968Y+5219766D01*
X+3420000Y+5220000D02*
X+3050544Y+5220000D01*
X+3045836Y+5224708D01*
X+4590000Y+5220000D02*
X+4236536Y+5220000D01*
X+4231828Y+5224708D01*
D15*
X+1120000Y+4670000D02*
X+1400000Y+4670000D01*
X+1620000Y+4670000D01*
X+4549000Y+4670000D02*
X+4800000Y+4670000D01*
X+5049000Y+4670000D01*
X+4549000Y+3670000D02*
X+3427440Y+2548440D01*
X+3427440Y+1396240D01*
X+3406000Y+4670000D02*
X+3652639Y+4670000D01*
X+3906000Y+4670000D01*
X+3906000Y+3670000D02*
X+3906000Y+3252982D01*
X+3906158Y+3252824D01*
X+2263000Y+4670000D02*
X+2500000Y+4670000D01*
X+2763000Y+4670000D01*
X+2500000Y+4670000D02*
X+2500000Y+3530092D01*
X+2630278Y+3399814D01*
X+3299814Y+3399814D01*
X+3300000Y+3400000D01*
X+3823680Y+1396240D02*
X+3823680Y+2547105D01*
X+4470602Y+3194027D01*
D12*
X+3427440Y+1000000D02*
X+3427440Y+482560D01*
X+3600000Y+310000D01*
D13*
X+6300000Y+310000D02*
X+3600000Y+310000D01*
X+404155Y+310000D01*
X+180709Y+533446D01*
D15*
X+6148958Y+1767013D02*
X+6148958Y+3138353D01*
X+5935513Y+3351798D01*
X+4846527Y+2265232D02*
X+5300000Y+2718705D01*
X+5300000Y+3200000D01*
D14*
X+3906000Y+3920000D02*
X+4244477Y+4258477D01*
X+4244477Y+4945410D01*
X+5020665Y+4945410D02*
X+4244477Y+4945410D01*
X+3836648Y+4945410D01*
D10*
X+10160000Y+3930000D02*
X+10444808Y+3930000D01*
X+10453820Y+3939012D01*
X+10160000Y+4410000D02*
X+10344282Y+4410000D01*
X+10453820Y+4300462D01*
X+10453820Y+3939012D01*
X+10453820Y+3600000D01*
X+12827000Y+3930000D02*
X+13108843Y+3930000D01*
X+13120820Y+3941977D01*
X+12827000Y+4410000D02*
X+13011282Y+4410000D01*
X+13120820Y+4300462D01*
X+13120820Y+3941977D01*
X+13120820Y+3600000D01*
X+15494000Y+3930000D02*
X+15786333Y+3930000D01*
X+15787820Y+3931487D01*
X+15494000Y+4410000D02*
X+15678282Y+4410000D01*
X+15787820Y+4300462D01*
X+15787820Y+3931487D01*
X+15787820Y+3600000D01*
X+18161000Y+3930000D02*
X+18446336Y+3930000D01*
X+18454820Y+3938484D01*
X+18161000Y+4410000D02*
X+18345282Y+4410000D01*
X+18454820Y+4300462D01*
X+18454820Y+3938484D01*
X+18454820Y+3580000D01*
X+18454820Y+3600000D01*
D11*
X+18620000Y+11810000D02*
X+20604404Y+11810000D01*
X+22008723Y+10405681D01*
X+22005540Y+10402498D01*
X+22005540Y+8325240D01*
X+17878700Y+8312540D02*
X+17878700Y+7562920D01*
X+17879080Y+7562540D01*
X+19265540Y+8325240D02*
X+19265540Y+8953865D01*
X+19270255Y+8958580D01*
X+17878700Y+8312540D02*
X+17878700Y+8800740D01*
X+18036540Y+8958580D01*
X+19270255Y+8958580D01*
X+20635540Y+8325240D02*
X+20635540Y+8956620D01*
X+20637500Y+8958580D01*
X+19270255Y+8958580D02*
X+20637500Y+8958580D01*
X+21841398Y+8958580D01*
X+21946081Y+9063263D01*
D14*
X+18455220Y+1554862D02*
X+18221960Y+1321602D01*
X+18221960Y+1010920D01*
D15*
X+4800000Y+4670000D02*
X+4800000Y+2918890D01*
X+4228333Y+2347223D01*
X+4228333Y+1404653D01*
X+4260000Y+1370000D01*
X+1770000Y+1360000D02*
X+1740000Y+1370000D01*
X+1760000Y+1478720D01*
X+1760000Y+1560000D01*
X+2000000Y+1800000D01*
X+2869721Y+1800000D01*
X+3220486Y+2150765D01*
X+3220486Y+2829861D01*
X+3652639Y+3262014D01*
X+3652639Y+4670000D01*
X+1320000Y+1370000D02*
X+1330000Y+1512480D01*
X+1330000Y+2454970D01*
X+2268224Y+3393194D01*
X+2268224Y+3664776D01*
X+2263000Y+3670000D01*
X+900000Y+1370000D02*
X+910000Y+1536240D01*
X+910000Y+2345000D01*
X+1929398Y+3364398D01*
X+1400000Y+4670000D02*
X+1377088Y+4647088D01*
X+1377088Y+3420905D01*
X+500000Y+2543817D01*
X+500000Y+800000D01*
X+707197Y+592803D01*
X+1310000Y+592803D01*
X+1330000Y+605102D01*
X+1330000Y+883760D01*
X+1320000Y+950000D01*
X+3840000Y+970000D02*
X+3843334Y+693334D01*
X+3923797Y+612871D01*
X+4982129Y+612871D01*
X+5652407Y+1283149D01*
X+5652407Y+3147593D01*
X+5400000Y+3400000D01*
X+5000000Y+3400000D01*
X+5919891Y+1448625D02*
X+5892396Y+1476120D01*
X+5892396Y+2977462D01*
X+1620000Y+3670000D02*
X+1620000Y+3375160D01*
X+652643Y+2407803D01*
X+652643Y+1024914D01*
X+727557Y+950000D01*
X+900000Y+950000D01*
D14*
X+10864000Y+3230000D02*
X+10864000Y+3821806D01*
X+11087332Y+4045138D01*
X+11543960Y+4045138D01*
X+11665253Y+3923845D01*
X+11665253Y+2418396D01*
X+11222894Y+1976037D01*
X+9524803Y+1976037D01*
X+9353568Y+1804802D01*
X+9353568Y+855869D01*
X+9110984Y+613285D01*
X+7546715Y+613285D01*
X+7490000Y+670000D01*
X+7490000Y+1000000D01*
X+7486240Y+1003760D01*
D12*
X+8330000Y+1400000D02*
X+8320000Y+1441280D01*
X+8320000Y+1938148D01*
X+8798445Y+2416593D01*
X+11131482Y+2416593D01*
X+11370000Y+2780000D01*
X+11370000Y+3600000D01*
D13*
X+7930000Y+1400000D02*
X+7910000Y+1400000D01*
X+7910000Y+2693112D01*
X+7882480Y+2693112D01*
D14*
X+13531000Y+3230000D02*
X+13531000Y+3854416D01*
X+13756334Y+4079750D01*
X+14306667Y+4079750D01*
X+14401917Y+3984500D01*
X+14401917Y+2174750D01*
X+13385917Y+1158750D01*
X+13385917Y+587250D01*
X+11639668Y+587250D01*
X+11600000Y+626918D01*
X+11600000Y+990000D01*
X+11586240Y+1003760D01*
D13*
X+12040000Y+1390000D02*
X+12020000Y+1400000D01*
X+12020000Y+2692639D01*
X+11982480Y+2692639D01*
X+11983122Y+2693281D01*
D12*
X+12450000Y+1400000D02*
X+12450000Y+1930000D01*
X+12960000Y+2440000D01*
X+13740000Y+2440000D01*
X+14090000Y+2790000D01*
X+14090000Y+3600000D01*
D13*
X+16130000Y+1400000D02*
X+16130000Y+2682863D01*
X+16092480Y+2682863D01*
X+16091023Y+2684320D01*
D12*
X+16560000Y+1400000D02*
X+16540000Y+1451280D01*
X+16540000Y+2224404D01*
X+16740290Y+2424694D01*
X+16740290Y+3600000D01*
D14*
X+16198000Y+3230000D02*
X+16198000Y+3705118D01*
X+16526621Y+4033739D01*
X+16906566Y+4033739D01*
X+17096538Y+3843767D01*
X+17096538Y+2093462D01*
X+17520000Y+1670000D01*
X+17520000Y+826621D01*
X+17272438Y+579059D01*
X+15731552Y+579059D01*
X+15700000Y+610611D01*
X+15700000Y+1000000D01*
X+15720000Y+980000D01*
D13*
X+20250000Y+1400000D02*
X+20250000Y+2075168D01*
X+19623949Y+2701219D01*
X+19131219Y+2701219D01*
D12*
X+18454820Y+3600000D02*
X+19385902Y+3600000D01*
X+20650000Y+2335902D01*
X+20650000Y+1451280D01*
X+20670000Y+1400000D01*
D11*
X+6153980Y+11551160D02*
X+5610000Y+11007180D01*
X+5610000Y+9740000D01*
X+4047838Y+9740000D01*
X+2964896Y+10822942D01*
X+2002942Y+10822942D01*
X+1570000Y+10390000D01*
X+1570000Y+9677839D01*
X+1707839Y+9540000D01*
X+1920000Y+9550000D01*
X+1920000Y+9130000D02*
X+1920000Y+9120000D01*
X+1554518Y+9120000D01*
X+1184052Y+9490466D01*
X+1184052Y+10594052D01*
X+1750000Y+11160000D01*
X+3186807Y+11160000D01*
X+4246807Y+10100000D01*
X+5254172Y+10100000D01*
X+5254172Y+11651352D01*
X+6153980Y+12551160D01*
X+1920000Y+9970000D02*
X+1930000Y+10200000D01*
X+2180000Y+10460000D01*
X+2582133Y+10456816D01*
X+2682674Y+10456816D01*
X+3773423Y+9366067D01*
X+6099849Y+9366067D01*
X+6153980Y+9420198D01*
X+6153980Y+10551160D01*
D16*
X+2356240Y+12010000D03*
X+2640000Y+13020000D03*
X+2980000Y+12370000D03*
X+1980000Y+12670000D03*
X+2250000Y+12990000D03*
X+2770000Y+12090000D03*
X+2930000Y+12780000D03*
X+2040000Y+12240000D03*
X+13120820Y+3600000D03*
X+10453820Y+3600000D03*
X+15787820Y+3600000D03*
D17*
X+14400000Y+5300000D03*
X+14400000Y+4700000D03*
X+723269Y+5219766D03*
X+1933968Y+5219766D03*
X+3045836Y+5224708D03*
X+4236536Y+5220000D03*
D18*
X+3906000Y+3252982D03*
X+3299814Y+3399814D03*
X+4470602Y+3194027D03*
X+4846527Y+2265232D03*
X+5935513Y+3351798D03*
X+5300000Y+3200000D03*
X+18221960Y+1010920D03*
X+18980000Y+990000D03*
X+1929398Y+3364398D03*
X+5000000Y+3400000D03*
X+5919891Y+1448625D03*
X+5892396Y+2977462D03*
X+6148958Y+1767013D03*
D16*
X+11370000Y+3600000D03*
X+7882480Y+2693112D03*
X+11982480Y+2692639D03*
X+14090000Y+3600000D03*
X+16092480Y+2682863D03*
X+16740290Y+3600000D03*
X+19131219Y+2701219D03*
X+18454820Y+3600000D03*
D19*
X+1620000Y+3920000D03*
X+1120000Y+3920000D03*
X+1620000Y+4670000D03*
X+1120000Y+4670000D03*
X+1620000Y+3670000D03*
X+1120000Y+3670000D03*
X+2763000Y+3920000D03*
X+2263000Y+3920000D03*
X+2763000Y+4670000D03*
X+2263000Y+4670000D03*
X+2763000Y+3670000D03*
X+2263000Y+3670000D03*
X+3906000Y+3920000D03*
X+3406000Y+3920000D03*
X+3906000Y+4670000D03*
X+3406000Y+4670000D03*
X+3906000Y+3670000D03*
X+3406000Y+3670000D03*
X+5049000Y+3920000D03*
X+4549000Y+3920000D03*
X+5049000Y+4670000D03*
X+4549000Y+4670000D03*
X+5049000Y+3670000D03*
X+4549000Y+3670000D03*
D70*
X+900000Y+1370000D03*
X+900000Y+950000D03*
X+1320000Y+1370000D03*
X+1320000Y+950000D03*
X+1740000Y+1370000D03*
X+1740000Y+950000D03*
X+2160000Y+1370000D03*
X+2160000Y+950000D03*
X+2580000Y+1370000D03*
X+2580000Y+950000D03*
X+3000000Y+1370000D03*
X+3000000Y+950000D03*
X+3420000Y+1370000D03*
X+3420000Y+950000D03*
X+3840000Y+1370000D03*
X+3840000Y+950000D03*
X+4260000Y+1370000D03*
X+4260000Y+950000D03*
X+4680000Y+1370000D03*
X+4680000Y+950000D03*
X+7090000Y+1400000D03*
X+7090000Y+980000D03*
X+7510000Y+1400000D03*
X+7510000Y+980000D03*
X+7930000Y+1400000D03*
X+7930000Y+980000D03*
X+8350000Y+1400000D03*
X+8350000Y+980000D03*
X+8770000Y+1400000D03*
X+8770000Y+980000D03*
X+11190000Y+1400000D03*
X+11190000Y+980000D03*
X+11610000Y+1400000D03*
X+11610000Y+980000D03*
X+12030000Y+1400000D03*
X+12030000Y+980000D03*
X+12450000Y+1400000D03*
X+12450000Y+980000D03*
X+12870000Y+1400000D03*
X+12870000Y+980000D03*
X+15300000Y+1400000D03*
X+15300000Y+980000D03*
X+15720000Y+1400000D03*
X+15720000Y+980000D03*
X+16140000Y+1400000D03*
X+16140000Y+980000D03*
X+16560000Y+1400000D03*
X+16560000Y+980000D03*
X+16980000Y+1400000D03*
X+16980000Y+980000D03*
X+19410000Y+1400000D03*
X+19410000Y+980000D03*
X+19830000Y+1400000D03*
X+19830000Y+980000D03*
X+20250000Y+1400000D03*
X+20250000Y+980000D03*
X+20670000Y+1400000D03*
X+20670000Y+980000D03*
X+21090000Y+1400000D03*
X+21090000Y+980000D03*
X+1920000Y+9970000D03*
X+2340000Y+9550000D03*
X+1920000Y+9550000D03*
X+2340000Y+9130000D03*
X+1920000Y+9130000D03*
X+2340000Y+8710000D03*
X+1920000Y+8710000D03*
X+2340000Y+9970000D03*
D71*
X+2480000Y+2520000D03*
X+21430000Y+2510000D03*
X+21430000Y+12509980D03*
D20*
X+2480000Y+12519980D03*
D21*
X+9500000Y+4340000D03*
X+9500000Y+4152040D03*
X+9301880Y+4246020D03*
D22*
X+10160000Y+4410000D03*
X+10160000Y+4095040D03*
X+9840000Y+3620000D03*
X+9840000Y+3934960D03*
X+10160000Y+3930000D03*
X+10160000Y+3615040D03*
X+9840000Y+4410000D03*
X+9840000Y+4095040D03*
D23*
X+9340000Y+3230000D03*
X+10864000Y+3230000D03*
D21*
X+12167000Y+4340000D03*
X+12167000Y+4152040D03*
X+11968880Y+4246020D03*
D22*
X+12827000Y+4410000D03*
X+12827000Y+4095040D03*
X+12507000Y+3620000D03*
X+12507000Y+3934960D03*
X+12827000Y+3930000D03*
X+12827000Y+3615040D03*
X+12507000Y+4410000D03*
X+12507000Y+4095040D03*
D23*
X+12007000Y+3230000D03*
X+13531000Y+3230000D03*
D21*
X+14834000Y+4340000D03*
X+14834000Y+4152040D03*
X+14635880Y+4246020D03*
D22*
X+15494000Y+4410000D03*
X+15494000Y+4095040D03*
X+15174000Y+3620000D03*
X+15174000Y+3934960D03*
X+15494000Y+3930000D03*
X+15494000Y+3615040D03*
X+15174000Y+4410000D03*
X+15174000Y+4095040D03*
D23*
X+14674000Y+3230000D03*
X+16198000Y+3230000D03*
D21*
X+17501000Y+4340000D03*
X+17501000Y+4152040D03*
X+17302880Y+4246020D03*
D22*
X+18161000Y+4410000D03*
X+18161000Y+4095040D03*
X+17841000Y+3620000D03*
X+17841000Y+3934960D03*
X+18161000Y+3930000D03*
X+18161000Y+3615040D03*
X+17841000Y+4410000D03*
X+17841000Y+4095040D03*
D23*
X+17341000Y+3230000D03*
X+18865000Y+3230000D03*
D24*
X+7010020Y+6671160D03*
X+8760020Y+6671160D03*
X+4403980Y+6671160D03*
X+6153980Y+6671160D03*
X+7010020Y+7671160D03*
X+8760020Y+7671160D03*
X+4403980Y+7671160D03*
X+6153980Y+7671160D03*
X+7010020Y+8671160D03*
X+8760020Y+8671160D03*
X+4403980Y+8671160D03*
X+6153980Y+8671160D03*
X+7010020Y+10551160D03*
X+8760020Y+10551160D03*
X+4403980Y+10551160D03*
X+6153980Y+10551160D03*
X+7010020Y+11551160D03*
X+8760020Y+11551160D03*
X+4403980Y+11551160D03*
X+6153980Y+11551160D03*
X+7010020Y+12551160D03*
X+8760020Y+12551160D03*
D25*
X+4403980Y+12551160D03*
D24*
X+6153980Y+12551160D03*
D26*
X+1180000Y+5220000D03*
X+1601640Y+5220000D03*
X+2260000Y+5220000D03*
X+2681640Y+5220000D03*
X+3420000Y+5220000D03*
X+3841640Y+5220000D03*
X+4590000Y+5220000D03*
X+5011640Y+5220000D03*
D70*
X+19265920Y+7575240D03*
X+18765540Y+7575240D03*
X+18765540Y+8325240D03*
X+19265540Y+8325240D03*
X+20635920Y+7575240D03*
X+20135540Y+7575240D03*
X+20135540Y+8325240D03*
X+20635540Y+8325240D03*
X+22005920Y+7575240D03*
X+21505540Y+7575240D03*
X+21505540Y+8325240D03*
X+22005540Y+8325240D03*
D24*
X+11170000Y+11840000D03*
X+11170000Y+10890000D03*
D27*
X+11170000Y+7510000D03*
X+11170000Y+8210000D03*
D24*
X+14860000Y+11840000D03*
X+14860000Y+10890000D03*
X+18620000Y+11810000D03*
X+18620000Y+10860000D03*
X+10920000Y+8360000D03*
X+10900000Y+7410000D03*
D27*
X+14820000Y+7510000D03*
X+14820000Y+8210000D03*
D24*
X+14570000Y+8360000D03*
X+14550000Y+7410000D03*
X+4399280Y+12560300D03*
D70*
X+17879080Y+7562540D03*
X+17378700Y+7562540D03*
X+17378700Y+8312540D03*
X+17878700Y+8312540D03*
D28*
X+0Y+0D02*
X+23000000Y+0D01*
X+23000000Y+13500000D01*
X+0Y+13500000D01*
X+0Y+0D01*
M02*
