M48
METRIC,TZ
T01C0.5080
T02C0.3810
T03C1.0160
T04C1.7780
T05C5.0000
T06C1.5240
T07C1.2700
%
T01
X+23562Y+120100
X+26400Y+130200
X+29800Y+123700
X+19800Y+126700
X+22500Y+129900
X+27700Y+120900
X+29300Y+127800
X+20400Y+122400
X+131208Y+36000
X+104538Y+36000
X+157878Y+36000
X+39060Y+32530
X+32998Y+33998
X+44706Y+31940
X+48465Y+22652
X+59355Y+33518
X+53000Y+32000
X+182220Y+10109
X+189800Y+9900
X+19294Y+33644
X+50000Y+34000
X+59199Y+14486
X+58924Y+29775
X+61490Y+17670
X+113700Y+36000
X+78825Y+26931
X+119825Y+26926
X+140900Y+36000
X+160925Y+26829
X+167403Y+36000
X+191312Y+27012
X+184548Y+36000
T02
X+144000Y+53000
X+144000Y+47000
X+7233Y+52198
X+19340Y+52198
X+30458Y+52247
X+42365Y+52200
T03
X+16200Y+39200
X+11200Y+39200
X+16200Y+46700
X+11200Y+46700
X+16200Y+36700
X+11200Y+36700
X+27630Y+39200
X+22630Y+39200
X+27630Y+46700
X+22630Y+46700
X+27630Y+36700
X+22630Y+36700
X+39060Y+39200
X+34060Y+39200
X+39060Y+46700
X+34060Y+46700
X+39060Y+36700
X+34060Y+36700
X+50490Y+39200
X+45490Y+39200
X+50490Y+46700
X+45490Y+46700
X+50490Y+36700
X+45490Y+36700
X+93400Y+32300
X+108640Y+32300
X+120070Y+32300
X+135310Y+32300
X+146740Y+32300
X+161980Y+32300
X+173410Y+32300
X+188650Y+32300
T04
X+9000Y+13700
X+9000Y+9500
X+13200Y+13700
X+13200Y+9500
X+17400Y+13700
X+17400Y+9500
X+21600Y+13700
X+21600Y+9500
X+25800Y+13700
X+25800Y+9500
X+30000Y+13700
X+30000Y+9500
X+34200Y+13700
X+34200Y+9500
X+38400Y+13700
X+38400Y+9500
X+42600Y+13700
X+42600Y+9500
X+46800Y+13700
X+46800Y+9500
X+70900Y+14000
X+70900Y+9800
X+75100Y+14000
X+75100Y+9800
X+79300Y+14000
X+79300Y+9800
X+83500Y+14000
X+83500Y+9800
X+87700Y+14000
X+87700Y+9800
X+111900Y+14000
X+111900Y+9800
X+116100Y+14000
X+116100Y+9800
X+120300Y+14000
X+120300Y+9800
X+124500Y+14000
X+124500Y+9800
X+128700Y+14000
X+128700Y+9800
X+153000Y+14000
X+153000Y+9800
X+157200Y+14000
X+157200Y+9800
X+161400Y+14000
X+161400Y+9800
X+165600Y+14000
X+165600Y+9800
X+169800Y+14000
X+169800Y+9800
X+194100Y+14000
X+194100Y+9800
X+198300Y+14000
X+198300Y+9800
X+202500Y+14000
X+202500Y+9800
X+206700Y+14000
X+206700Y+9800
X+210900Y+14000
X+210900Y+9800
X+19200Y+99700
X+23400Y+95500
X+19200Y+95500
X+23400Y+91300
X+19200Y+91300
X+23400Y+87100
X+19200Y+87100
X+23400Y+99700
X+70100Y+66712
X+87600Y+66712
X+44040Y+66712
X+61540Y+66712
X+70100Y+76712
X+87600Y+76712
X+44040Y+76712
X+61540Y+76712
X+70100Y+86712
X+87600Y+86712
X+44040Y+86712
X+61540Y+86712
X+70100Y+105512
X+87600Y+105512
X+44040Y+105512
X+61540Y+105512
X+70100Y+115512
X+87600Y+115512
X+44040Y+115512
X+61540Y+115512
X+70100Y+125512
X+87600Y+125512
X+61540Y+125512
X+111700Y+118400
X+111700Y+108900
X+148600Y+118400
X+148600Y+108900
X+186200Y+118100
X+186200Y+108600
X+109200Y+83600
X+109000Y+74100
X+145700Y+83600
X+145500Y+74100
X+43993Y+125603
T05
X+24800Y+25200
X+214300Y+25100
X+214300Y+125100
X+24800Y+125200
T06
X+44040Y+125512
X+192659Y+75752
X+187655Y+75752
X+187655Y+83252
X+192655Y+83252
X+206359Y+75752
X+201355Y+75752
X+201355Y+83252
X+206355Y+83252
X+220059Y+75752
X+215055Y+75752
X+215055Y+83252
X+220055Y+83252
X+178791Y+75625
X+173787Y+75625
X+173787Y+83125
X+178787Y+83125
T07
X+111700Y+75100
X+111700Y+82100
X+148200Y+75100
X+148200Y+82100
M30
