G04 PROTEUS RS274X GERBER FILE*
%FSLAX45Y45*%
%MOMM*%
G01*
%ADD23C,2.032000*%
%ADD73C,3.556000*%
%ADD30C,12.700000*%
%ADD31C,15.748000*%
%AMPPAD026*
4,1,48,
0.762000,0.444500,
0.762000,-0.444500,
0.760720,-0.470900,
0.756950,-0.496430,
0.750800,-0.520990,
0.731870,-0.566720,
0.704840,-0.607150,
0.670640,-0.641340,
0.630220,-0.668360,
0.584490,-0.687300,
0.559930,-0.693450,
0.534400,-0.697220,
0.508000,-0.698500,
-0.508000,-0.698500,
-0.534400,-0.697220,
-0.559930,-0.693450,
-0.584490,-0.687300,
-0.630220,-0.668360,
-0.670640,-0.641340,
-0.704840,-0.607150,
-0.731870,-0.566720,
-0.750800,-0.520990,
-0.756950,-0.496430,
-0.760720,-0.470900,
-0.762000,-0.444500,
-0.762000,0.444500,
-0.760720,0.470900,
-0.756950,0.496430,
-0.750800,0.520990,
-0.731870,0.566720,
-0.704840,0.607150,
-0.670640,0.641340,
-0.630220,0.668360,
-0.584490,0.687300,
-0.559930,0.693450,
-0.534400,0.697220,
-0.508000,0.698500,
0.508000,0.698500,
0.534400,0.697220,
0.559930,0.693450,
0.584490,0.687300,
0.630220,0.668360,
0.670640,0.641340,
0.704840,0.607150,
0.731870,0.566720,
0.750800,0.520990,
0.756950,0.496430,
0.760720,0.470900,
0.762000,0.444500,
0*%
%ADD32PPAD026*%
%AMPPAD027*
4,1,48,
1.016000,0.508000,
1.016000,-0.508000,
1.014720,-0.534400,
1.010950,-0.559930,
1.004800,-0.584490,
0.985870,-0.630220,
0.958840,-0.670650,
0.924640,-0.704840,
0.884220,-0.731860,
0.838490,-0.750800,
0.813930,-0.756950,
0.788400,-0.760720,
0.762000,-0.762000,
-0.762000,-0.762000,
-0.788400,-0.760720,
-0.813930,-0.756950,
-0.838490,-0.750800,
-0.884220,-0.731860,
-0.924640,-0.704840,
-0.958840,-0.670650,
-0.985870,-0.630220,
-1.004800,-0.584490,
-1.010950,-0.559930,
-1.014720,-0.534400,
-1.016000,-0.508000,
-1.016000,0.508000,
-1.014720,0.534400,
-1.010950,0.559930,
-1.004800,0.584490,
-0.985870,0.630220,
-0.958840,0.670650,
-0.924640,0.704840,
-0.884220,0.731860,
-0.838490,0.750800,
-0.813930,0.756950,
-0.788400,0.760720,
-0.762000,0.762000,
0.762000,0.762000,
0.788400,0.760720,
0.813930,0.756950,
0.838490,0.750800,
0.884220,0.731860,
0.924640,0.704840,
0.958840,0.670650,
0.985870,0.630220,
1.004800,0.584490,
1.010950,0.559930,
1.014720,0.534400,
1.016000,0.508000,
0*%
%ADD33PPAD027*%
%ADD27C,2.540000*%
%ADD34C,4.826000*%
%ADD35C,4.572000*%
%AMPPAD030*
4,1,48,
-1.016000,1.270000,
1.016000,1.270000,
1.042400,1.268720,
1.067930,1.264950,
1.092490,1.258800,
1.138220,1.239870,
1.178650,1.212840,
1.212840,1.178640,
1.239860,1.138220,
1.258800,1.092490,
1.264950,1.067930,
1.268720,1.042400,
1.270000,1.016000,
1.270000,-1.016000,
1.268720,-1.042400,
1.264950,-1.067930,
1.258800,-1.092490,
1.239860,-1.138220,
1.212840,-1.178640,
1.178650,-1.212840,
1.138220,-1.239870,
1.092490,-1.258800,
1.067930,-1.264950,
1.042400,-1.268720,
1.016000,-1.270000,
-1.016000,-1.270000,
-1.042400,-1.268720,
-1.067930,-1.264950,
-1.092490,-1.258800,
-1.138220,-1.239870,
-1.178650,-1.212840,
-1.212840,-1.178640,
-1.239860,-1.138220,
-1.258800,-1.092490,
-1.264950,-1.067930,
-1.268720,-1.042400,
-1.270000,-1.016000,
-1.270000,1.016000,
-1.268720,1.042400,
-1.264950,1.067930,
-1.258800,1.092490,
-1.239860,1.138220,
-1.212840,1.178640,
-1.178650,1.212840,
-1.138220,1.239870,
-1.092490,1.258800,
-1.067930,1.264950,
-1.042400,1.268720,
-1.016000,1.270000,
0*%
%ADD36PPAD030*%
%ADD25C,3.810000*%
%ADD37C,3.149600*%
%ADD28C,0.203200*%
D23*
X+1620000Y+3920000D03*
X+1120000Y+3920000D03*
X+1620000Y+4670000D03*
X+1120000Y+4670000D03*
X+1620000Y+3670000D03*
X+1120000Y+3670000D03*
X+2763000Y+3920000D03*
X+2263000Y+3920000D03*
X+2763000Y+4670000D03*
X+2263000Y+4670000D03*
X+2763000Y+3670000D03*
X+2263000Y+3670000D03*
X+3906000Y+3920000D03*
X+3406000Y+3920000D03*
X+3906000Y+4670000D03*
X+3406000Y+4670000D03*
X+3906000Y+3670000D03*
X+3406000Y+3670000D03*
X+5049000Y+3920000D03*
X+4549000Y+3920000D03*
X+5049000Y+4670000D03*
X+4549000Y+4670000D03*
X+5049000Y+3670000D03*
X+4549000Y+3670000D03*
D73*
X+900000Y+1370000D03*
X+900000Y+950000D03*
X+1320000Y+1370000D03*
X+1320000Y+950000D03*
X+1740000Y+1370000D03*
X+1740000Y+950000D03*
X+2160000Y+1370000D03*
X+2160000Y+950000D03*
X+2580000Y+1370000D03*
X+2580000Y+950000D03*
X+3000000Y+1370000D03*
X+3000000Y+950000D03*
X+3420000Y+1370000D03*
X+3420000Y+950000D03*
X+3840000Y+1370000D03*
X+3840000Y+950000D03*
X+4260000Y+1370000D03*
X+4260000Y+950000D03*
X+4680000Y+1370000D03*
X+4680000Y+950000D03*
X+7090000Y+1400000D03*
X+7090000Y+980000D03*
X+7510000Y+1400000D03*
X+7510000Y+980000D03*
X+7930000Y+1400000D03*
X+7930000Y+980000D03*
X+8350000Y+1400000D03*
X+8350000Y+980000D03*
X+8770000Y+1400000D03*
X+8770000Y+980000D03*
X+11190000Y+1400000D03*
X+11190000Y+980000D03*
X+11610000Y+1400000D03*
X+11610000Y+980000D03*
X+12030000Y+1400000D03*
X+12030000Y+980000D03*
X+12450000Y+1400000D03*
X+12450000Y+980000D03*
X+12870000Y+1400000D03*
X+12870000Y+980000D03*
X+15300000Y+1400000D03*
X+15300000Y+980000D03*
X+15720000Y+1400000D03*
X+15720000Y+980000D03*
X+16140000Y+1400000D03*
X+16140000Y+980000D03*
X+16560000Y+1400000D03*
X+16560000Y+980000D03*
X+16980000Y+1400000D03*
X+16980000Y+980000D03*
X+19410000Y+1400000D03*
X+19410000Y+980000D03*
X+19830000Y+1400000D03*
X+19830000Y+980000D03*
X+20250000Y+1400000D03*
X+20250000Y+980000D03*
X+20670000Y+1400000D03*
X+20670000Y+980000D03*
X+21090000Y+1400000D03*
X+21090000Y+980000D03*
X+1920000Y+9970000D03*
X+2340000Y+9550000D03*
X+1920000Y+9550000D03*
X+2340000Y+9130000D03*
X+1920000Y+9130000D03*
X+2340000Y+8710000D03*
X+1920000Y+8710000D03*
X+2340000Y+9970000D03*
D30*
X+2480000Y+2520000D03*
X+21430000Y+2510000D03*
X+21430000Y+12509980D03*
D31*
X+2480000Y+12519980D03*
D32*
X+9500000Y+4340000D03*
X+9500000Y+4152040D03*
X+9301880Y+4246020D03*
D33*
X+10160000Y+4410000D03*
X+10160000Y+4095040D03*
X+9840000Y+3620000D03*
X+9840000Y+3934960D03*
X+10160000Y+3930000D03*
X+10160000Y+3615040D03*
X+9840000Y+4410000D03*
X+9840000Y+4095040D03*
D27*
X+9340000Y+3230000D03*
X+10864000Y+3230000D03*
D32*
X+12167000Y+4340000D03*
X+12167000Y+4152040D03*
X+11968880Y+4246020D03*
D33*
X+12827000Y+4410000D03*
X+12827000Y+4095040D03*
X+12507000Y+3620000D03*
X+12507000Y+3934960D03*
X+12827000Y+3930000D03*
X+12827000Y+3615040D03*
X+12507000Y+4410000D03*
X+12507000Y+4095040D03*
D27*
X+12007000Y+3230000D03*
X+13531000Y+3230000D03*
D32*
X+14834000Y+4340000D03*
X+14834000Y+4152040D03*
X+14635880Y+4246020D03*
D33*
X+15494000Y+4410000D03*
X+15494000Y+4095040D03*
X+15174000Y+3620000D03*
X+15174000Y+3934960D03*
X+15494000Y+3930000D03*
X+15494000Y+3615040D03*
X+15174000Y+4410000D03*
X+15174000Y+4095040D03*
D27*
X+14674000Y+3230000D03*
X+16198000Y+3230000D03*
D32*
X+17501000Y+4340000D03*
X+17501000Y+4152040D03*
X+17302880Y+4246020D03*
D33*
X+18161000Y+4410000D03*
X+18161000Y+4095040D03*
X+17841000Y+3620000D03*
X+17841000Y+3934960D03*
X+18161000Y+3930000D03*
X+18161000Y+3615040D03*
X+17841000Y+4410000D03*
X+17841000Y+4095040D03*
D27*
X+17341000Y+3230000D03*
X+18865000Y+3230000D03*
D34*
X+7010020Y+6671160D03*
X+8760020Y+6671160D03*
X+4403980Y+6671160D03*
X+6153980Y+6671160D03*
X+7010020Y+7671160D03*
X+8760020Y+7671160D03*
X+4403980Y+7671160D03*
X+6153980Y+7671160D03*
X+7010020Y+8671160D03*
X+8760020Y+8671160D03*
X+4403980Y+8671160D03*
X+6153980Y+8671160D03*
X+7010020Y+10551160D03*
X+8760020Y+10551160D03*
X+4403980Y+10551160D03*
X+6153980Y+10551160D03*
X+7010020Y+11551160D03*
X+8760020Y+11551160D03*
X+4403980Y+11551160D03*
X+6153980Y+11551160D03*
X+7010020Y+12551160D03*
X+8760020Y+12551160D03*
D35*
X+4403980Y+12551160D03*
D34*
X+6153980Y+12551160D03*
D36*
X+1180000Y+5220000D03*
X+1601640Y+5220000D03*
X+2260000Y+5220000D03*
X+2681640Y+5220000D03*
X+3420000Y+5220000D03*
X+3841640Y+5220000D03*
X+4590000Y+5220000D03*
X+5011640Y+5220000D03*
D25*
X+19265920Y+7575240D03*
X+18765540Y+7575240D03*
X+18765540Y+8325240D03*
X+19265540Y+8325240D03*
X+20635920Y+7575240D03*
X+20135540Y+7575240D03*
X+20135540Y+8325240D03*
X+20635540Y+8325240D03*
X+22005920Y+7575240D03*
X+21505540Y+7575240D03*
X+21505540Y+8325240D03*
X+22005540Y+8325240D03*
D34*
X+11170000Y+11840000D03*
X+11170000Y+10890000D03*
D37*
X+11170000Y+7510000D03*
X+11170000Y+8210000D03*
D34*
X+14860000Y+11840000D03*
X+14860000Y+10890000D03*
X+18620000Y+11810000D03*
X+18620000Y+10860000D03*
X+10920000Y+8360000D03*
X+10900000Y+7410000D03*
D37*
X+14820000Y+7510000D03*
X+14820000Y+8210000D03*
D34*
X+14570000Y+8360000D03*
X+14550000Y+7410000D03*
X+4399280Y+12560300D03*
D25*
X+17879080Y+7562540D03*
X+17378700Y+7562540D03*
X+17378700Y+8312540D03*
X+17878700Y+8312540D03*
D28*
X+0Y+0D02*
X+23000000Y+0D01*
X+23000000Y+13500000D01*
X+0Y+13500000D01*
X+0Y+0D01*
M02*
