G04 PROTEUS RS274X GERBER FILE*
%FSLAX45Y45*%
%MOMM*%
G01*
%ADD11C,2.540000*%
%ADD12C,2.032000*%
%ADD13C,2.286000*%
%ADD29C,1.778000*%
%ADD10C,0.762000*%
%ADD14C,1.524000*%
%ADD15C,1.016000*%
%ADD16C,1.524000*%
%ADD17C,1.016000*%
%ADD18C,1.270000*%
%ADD19C,1.778000*%
%ADD70C,3.048000*%
%ADD71C,11.430000*%
%ADD20C,15.240000*%
%ADD23C,2.032000*%
%ADD24C,4.064000*%
%ADD25C,3.810000*%
%ADD27C,2.540000*%
%ADD28C,0.203200*%
D11*
X+8760020Y+12551160D02*
X+8760020Y+11551160D01*
X+8760020Y+10551160D01*
X+11170000Y+11840000D02*
X+9048860Y+11840000D01*
X+8760020Y+11551160D01*
X+11170000Y+11840000D02*
X+14860000Y+11840000D01*
X+18613048Y+11840000D01*
X+18615419Y+11837629D01*
X+6153980Y+12551160D02*
X+7010020Y+12551160D01*
X+6153980Y+11551160D02*
X+7010020Y+11551160D01*
X+6153980Y+10551160D02*
X+7010020Y+10551160D01*
X+11170000Y+10890000D02*
X+14860000Y+10890000D01*
X+18610000Y+10890000D01*
X+4403980Y+12551160D02*
X+4403980Y+11551160D01*
X+4403980Y+10551160D01*
X+18765540Y+8325240D02*
X+18765540Y+7575240D01*
X+20135540Y+8325240D02*
X+20135540Y+7575240D01*
X+21505540Y+8325240D02*
X+21505540Y+7575240D01*
X+2356240Y+12010000D02*
X+2356240Y+12051613D01*
X+2330672Y+12077181D01*
X+6153980Y+8671160D02*
X+7010020Y+8671160D01*
X+6153980Y+7671160D02*
X+7010020Y+7671160D01*
X+6153980Y+6671160D02*
X+7010020Y+6671160D01*
X+8760020Y+8671160D02*
X+8760020Y+7671160D01*
X+8760020Y+6671160D01*
X+4403980Y+8671160D02*
X+4403980Y+7671160D01*
X+4403980Y+6671160D01*
X+11170000Y+10890000D02*
X+9930000Y+10890000D01*
X+9130000Y+10090000D01*
X+5503121Y+10090000D01*
X+5027869Y+10565252D01*
X+4418072Y+10565252D01*
X+4403980Y+10551160D01*
X+2356240Y+9563760D02*
X+2933760Y+9563760D01*
X+3420000Y+10050000D01*
X+4980667Y+10050000D01*
X+6127358Y+8903309D01*
X+6153980Y+8876687D01*
X+6153980Y+8671160D01*
X+10900000Y+7410000D02*
X+11000000Y+7510000D01*
X+11170000Y+7510000D01*
X+14110000Y+7510000D02*
X+14450000Y+7510000D01*
X+14650000Y+7510000D01*
X+14820000Y+7510000D01*
X+11170000Y+7510000D02*
X+14110000Y+7510000D01*
X+14450000Y+7510000D02*
X+14550000Y+7410000D01*
X+14650000Y+7510000D01*
X+14550000Y+7410000D02*
X+14720000Y+7410000D01*
X+14820000Y+7510000D01*
X+11170000Y+7510000D02*
X+11060000Y+7400000D01*
X+10890000Y+7400000D01*
X+8760020Y+6671160D02*
X+10161160Y+6671160D01*
X+10890000Y+7400000D01*
X+10900000Y+7410000D01*
X+10920000Y+8360000D02*
X+11070000Y+8210000D01*
X+11170000Y+8210000D01*
X+10920000Y+8360000D02*
X+11020000Y+8360000D01*
X+11170000Y+8210000D01*
X+14570000Y+8360000D02*
X+14420000Y+8210000D01*
X+14313263Y+8210000D01*
X+11170000Y+8210000D02*
X+11170000Y+8610000D01*
X+11170000Y+9054364D01*
X+11170000Y+10890000D02*
X+11170000Y+9054364D01*
X+11170000Y+8610000D02*
X+10920000Y+8360000D01*
X+14815000Y+8215000D02*
X+14810000Y+8210000D01*
X+14570000Y+8360000D02*
X+14670000Y+8360000D01*
X+14815000Y+8215000D01*
X+14820000Y+8210000D01*
X+14420000Y+8210000D02*
X+14810000Y+8210000D01*
X+14820000Y+8210000D01*
X+14570000Y+8360000D02*
X+14832711Y+8622711D01*
X+14860000Y+8622711D01*
X+14860000Y+10890000D02*
X+14860000Y+8622711D01*
X+14860000Y+8260000D01*
X+14815000Y+8215000D01*
X+11170000Y+8610000D02*
X+11570000Y+8210000D01*
X+11600000Y+8210000D01*
X+11170000Y+8210000D02*
X+11570000Y+8210000D01*
X+11600000Y+8210000D02*
X+14313263Y+8210000D01*
X+11190000Y+1003760D02*
X+11190000Y+543530D01*
X+11171822Y+525352D01*
X+15300000Y+1003760D02*
X+15300000Y+502389D01*
X+7219325Y+502389D01*
X+7073448Y+648266D01*
X+7073448Y+987208D01*
X+7090000Y+1003760D01*
X+19410000Y+1003760D02*
X+19410000Y+538722D01*
X+19373667Y+502389D01*
X+18620000Y+10860000D02*
X+21140000Y+10860000D01*
X+22530000Y+9470000D01*
X+22530000Y+1199736D01*
X+21832653Y+502389D01*
X+19373667Y+502389D01*
X+15300000Y+502389D01*
D12*
X+18454820Y+3600000D02*
X+16740290Y+3600000D01*
X+15787820Y+3600000D01*
X+14090000Y+3600000D01*
X+13120820Y+3600000D01*
X+11460000Y+3600000D01*
D13*
X+18950000Y+2701219D02*
X+19131219Y+2701219D01*
X+19344231Y+2701219D01*
X+19345059Y+2702047D01*
D29*
X+10710000Y+3600000D02*
X+10453820Y+3600000D01*
D12*
X+11460000Y+3600000D02*
X+10710000Y+3600000D01*
D13*
X+18950000Y+2701219D02*
X+7890587Y+2701219D01*
X+7882480Y+2693112D01*
D29*
X+7882657Y+3600000D02*
X+7923915Y+3600000D01*
X+10453820Y+3600000D02*
X+7923915Y+3600000D01*
D11*
X+2356240Y+10960000D02*
X+1437401Y+10960000D01*
X+802297Y+10324896D01*
X+802297Y+8867703D01*
X+3560000Y+6110000D01*
X+6165867Y+6110000D01*
X+7893244Y+4382623D01*
X+7893244Y+3610587D01*
X+7882657Y+3600000D01*
X+7879427Y+3596770D01*
X+2356240Y+9960000D02*
X+2356240Y+10960000D01*
X+2356240Y+12010000D01*
D29*
X+7879427Y+3596770D02*
X+7879427Y+2712379D01*
X+7890587Y+2701219D01*
D10*
X+14400000Y+4700000D02*
X+14400000Y+5300000D01*
D14*
X+1120000Y+3920000D02*
X+723269Y+4316731D01*
X+723269Y+5219766D01*
X+2263000Y+3920000D02*
X+1933968Y+4249032D01*
X+1933968Y+5219766D01*
X+3406000Y+3920000D02*
X+3045836Y+4280164D01*
X+3045836Y+5224708D01*
X+4549000Y+3920000D02*
X+4236536Y+4232464D01*
X+4236536Y+5220000D01*
D15*
X+6148958Y+1767013D02*
X+6140138Y+1775833D01*
X+3406000Y+3670000D02*
X+3270324Y+3670000D01*
X+2923889Y+3323565D01*
X+2923889Y+3205973D01*
X+3329584Y+2800278D01*
X+3329584Y+2435741D01*
X+3511852Y+2253473D01*
X+4834768Y+2253473D01*
X+4846527Y+2265232D01*
X+5300000Y+3200000D02*
X+5451798Y+3351798D01*
X+5935513Y+3351798D01*
X+4470602Y+3194027D02*
X+5030765Y+3194027D01*
X+5361702Y+3524964D01*
X+5216666Y+3670000D01*
X+5049000Y+3670000D01*
D11*
X+17378700Y+8312540D02*
X+17378700Y+7562540D01*
D14*
X+7486240Y+1400000D02*
X+7486240Y+2055742D01*
X+7814494Y+2383996D01*
X+19492875Y+2383996D01*
X+19740138Y+2631259D01*
X+19740138Y+4722595D01*
X+17359388Y+7103345D01*
X+17359388Y+7543228D01*
X+17378700Y+7562540D01*
X+11586240Y+1400000D02*
X+11586240Y+1939320D01*
X+11788140Y+2141220D01*
X+19681005Y+2141220D01*
X+20051251Y+2511466D01*
X+20051251Y+4945818D01*
X+19614713Y+5382356D01*
X+18765540Y+6231529D01*
X+18765540Y+7575240D01*
X+18221960Y+1010920D02*
X+18959080Y+1010920D01*
X+18980000Y+990000D01*
X+15696240Y+1400000D02*
X+15696240Y+1793672D01*
X+15823819Y+1921251D01*
X+19816356Y+1921251D01*
X+20307410Y+2412305D01*
X+20307410Y+5096623D01*
X+20135540Y+5268493D01*
X+20135540Y+7575240D01*
X+19806240Y+1400000D02*
X+19806240Y+1566234D01*
X+20616128Y+2376122D01*
X+20616128Y+6133533D01*
X+21487509Y+7004914D01*
X+21487509Y+7557209D01*
X+21505540Y+7575240D01*
D15*
X+1929398Y+3364398D02*
X+2457398Y+3364398D01*
X+2763000Y+3670000D01*
X+5000000Y+3400000D02*
X+3300000Y+3400000D01*
X+1120000Y+3670000D02*
X+1120000Y+3420000D01*
X+500000Y+2800000D01*
X+500000Y+561928D01*
X+822153Y+239775D01*
X+5991275Y+239775D01*
X+6470310Y+718810D01*
X+6470310Y+2011092D01*
X+6269784Y+2211618D01*
X+5879873Y+2211618D01*
X+5064495Y+1396240D01*
X+4660000Y+1396240D01*
X+2170000Y+980000D02*
X+2170000Y+800554D01*
X+2335277Y+635277D01*
X+5453441Y+635277D01*
X+5919891Y+1101727D01*
X+5919891Y+1448625D01*
X+5892396Y+2977462D02*
X+4181520Y+2977462D01*
X+3906158Y+3252824D01*
X+1740000Y+980000D02*
X+1740000Y+667917D01*
X+1954895Y+453022D01*
X+5752189Y+453022D01*
X+6148958Y+849791D01*
X+6148958Y+1767013D01*
D29*
X+3000000Y+1370000D02*
X+3000000Y+1719067D01*
X+3308097Y+2027164D01*
X+5253943Y+2027164D01*
X+6826779Y+3600000D01*
X+7882657Y+3600000D01*
D11*
X+2340000Y+9130000D02*
X+2373760Y+9150000D01*
X+3170759Y+9150000D01*
X+3653286Y+9632527D01*
X+4717473Y+9632527D01*
X+5680000Y+8670000D01*
X+5680000Y+8145140D01*
X+6153980Y+7671160D01*
X+2340000Y+8710000D02*
X+2387520Y+8740000D01*
X+3413457Y+8740000D01*
X+3883975Y+9210518D01*
X+4552718Y+9210518D01*
X+5190786Y+8572450D01*
X+5190786Y+7634354D01*
X+6153980Y+6671160D01*
D16*
X+2356240Y+12010000D03*
X+2640000Y+13020000D03*
X+2980000Y+12370000D03*
X+1980000Y+12670000D03*
X+2250000Y+12990000D03*
X+2770000Y+12090000D03*
X+2930000Y+12780000D03*
X+2040000Y+12240000D03*
X+13120820Y+3600000D03*
X+10453820Y+3600000D03*
X+15787820Y+3600000D03*
D17*
X+14400000Y+5300000D03*
X+14400000Y+4700000D03*
X+723269Y+5219766D03*
X+1933968Y+5219766D03*
X+3045836Y+5224708D03*
X+4236536Y+5220000D03*
D18*
X+3906000Y+3252982D03*
X+3299814Y+3399814D03*
X+4470602Y+3194027D03*
X+4846527Y+2265232D03*
X+5935513Y+3351798D03*
X+5300000Y+3200000D03*
X+18221960Y+1010920D03*
X+18980000Y+990000D03*
X+1929398Y+3364398D03*
X+5000000Y+3400000D03*
X+5919891Y+1448625D03*
X+5892396Y+2977462D03*
X+6148958Y+1767013D03*
D16*
X+11370000Y+3600000D03*
X+7882480Y+2693112D03*
X+11982480Y+2692639D03*
X+14090000Y+3600000D03*
X+16092480Y+2682863D03*
X+16740290Y+3600000D03*
X+19131219Y+2701219D03*
X+18454820Y+3600000D03*
D19*
X+1620000Y+3920000D03*
X+1120000Y+3920000D03*
X+1620000Y+4670000D03*
X+1120000Y+4670000D03*
X+1620000Y+3670000D03*
X+1120000Y+3670000D03*
X+2763000Y+3920000D03*
X+2263000Y+3920000D03*
X+2763000Y+4670000D03*
X+2263000Y+4670000D03*
X+2763000Y+3670000D03*
X+2263000Y+3670000D03*
X+3906000Y+3920000D03*
X+3406000Y+3920000D03*
X+3906000Y+4670000D03*
X+3406000Y+4670000D03*
X+3906000Y+3670000D03*
X+3406000Y+3670000D03*
X+5049000Y+3920000D03*
X+4549000Y+3920000D03*
X+5049000Y+4670000D03*
X+4549000Y+4670000D03*
X+5049000Y+3670000D03*
X+4549000Y+3670000D03*
D70*
X+900000Y+1370000D03*
X+900000Y+950000D03*
X+1320000Y+1370000D03*
X+1320000Y+950000D03*
X+1740000Y+1370000D03*
X+1740000Y+950000D03*
X+2160000Y+1370000D03*
X+2160000Y+950000D03*
X+2580000Y+1370000D03*
X+2580000Y+950000D03*
X+3000000Y+1370000D03*
X+3000000Y+950000D03*
X+3420000Y+1370000D03*
X+3420000Y+950000D03*
X+3840000Y+1370000D03*
X+3840000Y+950000D03*
X+4260000Y+1370000D03*
X+4260000Y+950000D03*
X+4680000Y+1370000D03*
X+4680000Y+950000D03*
X+7090000Y+1400000D03*
X+7090000Y+980000D03*
X+7510000Y+1400000D03*
X+7510000Y+980000D03*
X+7930000Y+1400000D03*
X+7930000Y+980000D03*
X+8350000Y+1400000D03*
X+8350000Y+980000D03*
X+8770000Y+1400000D03*
X+8770000Y+980000D03*
X+11190000Y+1400000D03*
X+11190000Y+980000D03*
X+11610000Y+1400000D03*
X+11610000Y+980000D03*
X+12030000Y+1400000D03*
X+12030000Y+980000D03*
X+12450000Y+1400000D03*
X+12450000Y+980000D03*
X+12870000Y+1400000D03*
X+12870000Y+980000D03*
X+15300000Y+1400000D03*
X+15300000Y+980000D03*
X+15720000Y+1400000D03*
X+15720000Y+980000D03*
X+16140000Y+1400000D03*
X+16140000Y+980000D03*
X+16560000Y+1400000D03*
X+16560000Y+980000D03*
X+16980000Y+1400000D03*
X+16980000Y+980000D03*
X+19410000Y+1400000D03*
X+19410000Y+980000D03*
X+19830000Y+1400000D03*
X+19830000Y+980000D03*
X+20250000Y+1400000D03*
X+20250000Y+980000D03*
X+20670000Y+1400000D03*
X+20670000Y+980000D03*
X+21090000Y+1400000D03*
X+21090000Y+980000D03*
X+1920000Y+9970000D03*
X+2340000Y+9550000D03*
X+1920000Y+9550000D03*
X+2340000Y+9130000D03*
X+1920000Y+9130000D03*
X+2340000Y+8710000D03*
X+1920000Y+8710000D03*
X+2340000Y+9970000D03*
D71*
X+2480000Y+2520000D03*
X+21430000Y+2510000D03*
X+21430000Y+12509980D03*
D20*
X+2480000Y+12519980D03*
D23*
X+9340000Y+3230000D03*
X+10864000Y+3230000D03*
X+12007000Y+3230000D03*
X+13531000Y+3230000D03*
X+14674000Y+3230000D03*
X+16198000Y+3230000D03*
X+17341000Y+3230000D03*
X+18865000Y+3230000D03*
D24*
X+7010020Y+6671160D03*
X+8760020Y+6671160D03*
X+4403980Y+6671160D03*
X+6153980Y+6671160D03*
X+7010020Y+7671160D03*
X+8760020Y+7671160D03*
X+4403980Y+7671160D03*
X+6153980Y+7671160D03*
X+7010020Y+8671160D03*
X+8760020Y+8671160D03*
X+4403980Y+8671160D03*
X+6153980Y+8671160D03*
X+7010020Y+10551160D03*
X+8760020Y+10551160D03*
X+4403980Y+10551160D03*
X+6153980Y+10551160D03*
X+7010020Y+11551160D03*
X+8760020Y+11551160D03*
X+4403980Y+11551160D03*
X+6153980Y+11551160D03*
X+7010020Y+12551160D03*
X+8760020Y+12551160D03*
D25*
X+4403980Y+12551160D03*
D24*
X+6153980Y+12551160D03*
D70*
X+19265920Y+7575240D03*
X+18765540Y+7575240D03*
X+18765540Y+8325240D03*
X+19265540Y+8325240D03*
X+20635920Y+7575240D03*
X+20135540Y+7575240D03*
X+20135540Y+8325240D03*
X+20635540Y+8325240D03*
X+22005920Y+7575240D03*
X+21505540Y+7575240D03*
X+21505540Y+8325240D03*
X+22005540Y+8325240D03*
D24*
X+11170000Y+11840000D03*
X+11170000Y+10890000D03*
D27*
X+11170000Y+7510000D03*
X+11170000Y+8210000D03*
D24*
X+14860000Y+11840000D03*
X+14860000Y+10890000D03*
X+18620000Y+11810000D03*
X+18620000Y+10860000D03*
X+10920000Y+8360000D03*
X+10900000Y+7410000D03*
D27*
X+14820000Y+7510000D03*
X+14820000Y+8210000D03*
D24*
X+14570000Y+8360000D03*
X+14550000Y+7410000D03*
X+4399280Y+12560300D03*
D70*
X+17879080Y+7562540D03*
X+17378700Y+7562540D03*
X+17378700Y+8312540D03*
X+17878700Y+8312540D03*
D28*
X+0Y+0D02*
X+23000000Y+0D01*
X+23000000Y+13500000D01*
X+0Y+13500000D01*
X+0Y+0D01*
M02*
